<mxfile type="github" version="14.1.8" host="app.diagrams.net" modified="2021-01-07T14:30:45.908Z" agent="5.0 (Windows NT 10.0; Win64; x64) AppleWebKit/537.36 (KHTML, like Gecko) Chrome/70.0.3538.102 Safari/537.36 Edge/18.18363" etag="-w--vppfO7L1XYysuoZQ">
  <diagram id="T2QGYsmHAN5AD-noXrCk" name="Page-1">
    <mxGraphModel grid="1" background="#ffffff" dx="1838" dy="607" gridSize="10" guides="1" tooltips="1" connect="1" arrows="1" fold="1" page="0" pageScale="1" pageWidth="1169" pageHeight="1654" math="0" shadow="0">
      <root>
        <mxCell id="0" />
        <mxCell id="1" parent="0" />
        <mxCell id="dM0VD-r-u17M0NMK4Lzi-4" parent="1" style="edgeStyle=orthogonalEdgeStyle;rounded=0;orthogonalLoop=1;jettySize=auto;html=1;" edge="1" source="yoh0tQ8aldwYVWKs4Qrz-1">
          <mxGeometry as="geometry" relative="1">
            <mxPoint as="targetPoint" x="-125" y="472.5" />
          </mxGeometry>
        </mxCell>
        <mxCell id="dM0VD-r-u17M0NMK4Lzi-8" parent="1" style="edgeStyle=orthogonalEdgeStyle;rounded=0;orthogonalLoop=1;jettySize=auto;html=1;" edge="1" source="yoh0tQ8aldwYVWKs4Qrz-1">
          <mxGeometry as="geometry" relative="1">
            <mxPoint as="targetPoint" x="-240" y="572.5" />
          </mxGeometry>
        </mxCell>
        <mxCell id="yoh0tQ8aldwYVWKs4Qrz-1" value="&lt;b style=&quot;font-size: 16px&quot;&gt;&lt;font style=&quot;font-size: 16px&quot;&gt;宗教战争&lt;/font&gt;&lt;/b&gt;" parent="1" style="rounded=0;whiteSpace=wrap;html=1;" vertex="1">
          <mxGeometry as="geometry" x="-280" y="452.5" width="80" height="40" />
        </mxCell>
        <mxCell id="dM0VD-r-u17M0NMK4Lzi-5" value="&lt;font style=&quot;font-size: 11px&quot;&gt;合约/条约&lt;/font&gt;" parent="1" style="text;html=1;strokeColor=none;fillColor=none;align=center;verticalAlign=middle;whiteSpace=wrap;rounded=0;" vertex="1">
          <mxGeometry as="geometry" x="-200" y="452.5" width="56" height="20" />
        </mxCell>
        <mxCell id="dM0VD-r-u17M0NMK4Lzi-25" parent="1" style="edgeStyle=orthogonalEdgeStyle;rounded=0;orthogonalLoop=1;jettySize=auto;html=1;exitX=-0.056;exitY=0.49;exitDx=0;exitDy=0;exitPerimeter=0;" edge="1" source="dM0VD-r-u17M0NMK4Lzi-10">
          <mxGeometry as="geometry" relative="1">
            <mxPoint as="targetPoint" x="-310" y="570" />
            <mxPoint as="sourcePoint" x="-250" y="537" />
            <Array as="points">
              <mxPoint x="-310" y="537" />
            </Array>
          </mxGeometry>
        </mxCell>
        <mxCell id="dM0VD-r-u17M0NMK4Lzi-10" value="国家及发展脉络" parent="1" style="text;html=1;strokeColor=none;fillColor=none;align=center;verticalAlign=middle;whiteSpace=wrap;rounded=0;" vertex="1">
          <mxGeometry as="geometry" x="-235" y="512.5" width="90" height="50" />
        </mxCell>
        <mxCell id="dM0VD-r-u17M0NMK4Lzi-11" value="" parent="1" style="endArrow=classic;html=1;" edge="1">
          <mxGeometry as="geometry" relative="1" width="50" height="50">
            <mxPoint as="sourcePoint" x="-130" y="472.5" />
            <mxPoint as="targetPoint" x="-90" y="362.5" />
            <Array as="points">
              <mxPoint x="-130" y="362.5" />
            </Array>
          </mxGeometry>
        </mxCell>
        <mxCell id="dM0VD-r-u17M0NMK4Lzi-13" parent="1" style="edgeStyle=orthogonalEdgeStyle;rounded=0;orthogonalLoop=1;jettySize=auto;html=1;" edge="1" source="dM0VD-r-u17M0NMK4Lzi-12">
          <mxGeometry as="geometry" relative="1">
            <mxPoint as="targetPoint" x="100" y="357.5" />
          </mxGeometry>
        </mxCell>
        <mxCell id="dM0VD-r-u17M0NMK4Lzi-12" value="1555《奥格斯堡和约》" parent="1" style="rounded=0;whiteSpace=wrap;html=1;fontColor=#333333;" vertex="1">
          <mxGeometry as="geometry" x="-90" y="342.5" width="140" height="30" />
        </mxCell>
        <mxCell id="dM0VD-r-u17M0NMK4Lzi-15" parent="1" style="edgeStyle=orthogonalEdgeStyle;rounded=0;orthogonalLoop=1;jettySize=auto;html=1;" edge="1" source="dM0VD-r-u17M0NMK4Lzi-14">
          <mxGeometry as="geometry" relative="1">
            <mxPoint as="targetPoint" x="330" y="357.5" />
          </mxGeometry>
        </mxCell>
        <mxCell id="dM0VD-r-u17M0NMK4Lzi-14" value="神圣罗马帝国皇帝查理五世&lt;br&gt;德意志新教侯" parent="1" style="text;html=1;strokeColor=none;fillColor=none;align=center;verticalAlign=middle;whiteSpace=wrap;rounded=0;" vertex="1">
          <mxGeometry as="geometry" x="110" y="347.5" width="160" height="20" />
        </mxCell>
        <mxCell id="dM0VD-r-u17M0NMK4Lzi-16" value="结束了德意志新教君主和天主教君主的纷争&lt;br&gt;规定自此以后每个国家的宗教就是其君主的宗教" parent="1" style="text;html=1;strokeColor=#d6b656;fillColor=#fff2cc;align=center;verticalAlign=middle;whiteSpace=wrap;rounded=0;" vertex="1">
          <mxGeometry as="geometry" x="340" y="340" width="260" height="35" />
        </mxCell>
        <mxCell id="dM0VD-r-u17M0NMK4Lzi-18" parent="1" style="edgeStyle=orthogonalEdgeStyle;rounded=0;orthogonalLoop=1;jettySize=auto;html=1;" edge="1" source="dM0VD-r-u17M0NMK4Lzi-17">
          <mxGeometry as="geometry" relative="1">
            <mxPoint as="targetPoint" x="-120" y="587.5" />
          </mxGeometry>
        </mxCell>
        <mxCell id="dM0VD-r-u17M0NMK4Lzi-21" parent="1" style="edgeStyle=orthogonalEdgeStyle;rounded=0;orthogonalLoop=1;jettySize=auto;html=1;entryX=0.5;entryY=0;entryDx=0;entryDy=0;" edge="1" target="dM0VD-r-u17M0NMK4Lzi-22">
          <mxGeometry as="geometry" relative="1">
            <mxPoint as="targetPoint" x="-370" y="552.5" />
            <mxPoint as="sourcePoint" x="-240" y="525.5" />
          </mxGeometry>
        </mxCell>
        <mxCell id="dM0VD-r-u17M0NMK4Lzi-17" value="法国" parent="1" style="rounded=0;whiteSpace=wrap;html=1;strokeColor=#000000;fillColor=#ffffff;" vertex="1">
          <mxGeometry as="geometry" x="-260" y="572.5" width="40" height="30" />
        </mxCell>
        <mxCell id="dM0VD-r-u17M0NMK4Lzi-23" parent="1" style="edgeStyle=orthogonalEdgeStyle;rounded=0;orthogonalLoop=1;jettySize=auto;html=1;" edge="1" source="dM0VD-r-u17M0NMK4Lzi-22">
          <mxGeometry as="geometry" relative="1">
            <mxPoint as="targetPoint" x="-450" y="587.5" />
          </mxGeometry>
        </mxCell>
        <mxCell id="dM0VD-r-u17M0NMK4Lzi-22" value="荷兰" parent="1" style="rounded=0;whiteSpace=wrap;html=1;strokeColor=#000000;fillColor=#ffffff;" vertex="1">
          <mxGeometry as="geometry" x="-390" y="572.5" width="40" height="30" />
        </mxCell>
        <mxCell id="dM0VD-r-u17M0NMK4Lzi-24" value="1572 新教徒领导发起&lt;br&gt;反抗西班牙天主教统治者的斗争" parent="1" style="rounded=0;whiteSpace=wrap;html=1;strokeColor=#000000;fillColor=#ffffff;" vertex="1">
          <mxGeometry as="geometry" x="-650" y="560" width="190" height="42.5" />
        </mxCell>
        <mxCell id="dM0VD-r-u17M0NMK4Lzi-29" parent="1" style="edgeStyle=orthogonalEdgeStyle;rounded=0;orthogonalLoop=1;jettySize=auto;html=1;" edge="1" source="dM0VD-r-u17M0NMK4Lzi-26">
          <mxGeometry as="geometry" relative="1">
            <mxPoint as="targetPoint" x="-305" y="639.9999999999998" />
          </mxGeometry>
        </mxCell>
        <mxCell id="dM0VD-r-u17M0NMK4Lzi-26" value="德意志" parent="1" style="rounded=0;whiteSpace=wrap;html=1;strokeColor=#000000;fillColor=#ffffff;" vertex="1">
          <mxGeometry as="geometry" x="-330" y="572.5" width="50" height="30" />
        </mxCell>
        <mxCell id="dM0VD-r-u17M0NMK4Lzi-30" value="1618 宗教战争" parent="1" style="rounded=0;whiteSpace=wrap;html=1;strokeColor=#000000;fillColor=#ffffff;" vertex="1">
          <mxGeometry as="geometry" x="-350" y="640" width="90" height="30" />
        </mxCell>
        <mxCell id="dM0VD-r-u17M0NMK4Lzi-31" value="&lt;font style=&quot;font-size: 9px&quot;&gt;法国波旁王朝和奥地利的哈布斯堡王朝&lt;/font&gt;" parent="1" style="text;html=1;strokeColor=none;fillColor=none;align=center;verticalAlign=middle;whiteSpace=wrap;rounded=0;" vertex="1">
          <mxGeometry as="geometry" x="-217" y="580" width="90" height="50" />
        </mxCell>
        <mxCell id="dM0VD-r-u17M0NMK4Lzi-34" parent="1" style="edgeStyle=orthogonalEdgeStyle;rounded=0;orthogonalLoop=1;jettySize=auto;html=1;" edge="1" source="dM0VD-r-u17M0NMK4Lzi-33">
          <mxGeometry as="geometry" relative="1">
            <mxPoint as="targetPoint" x="105" y="557.5" />
          </mxGeometry>
        </mxCell>
        <mxCell id="dM0VD-r-u17M0NMK4Lzi-42" parent="1" style="edgeStyle=orthogonalEdgeStyle;rounded=0;orthogonalLoop=1;jettySize=auto;html=1;" edge="1" source="dM0VD-r-u17M0NMK4Lzi-33">
          <mxGeometry as="geometry" relative="1">
            <mxPoint as="targetPoint" x="-9.999999999999545" y="610" />
          </mxGeometry>
        </mxCell>
        <mxCell id="dM0VD-r-u17M0NMK4Lzi-33" value="弗朗索瓦一世" parent="1" style="rounded=0;whiteSpace=wrap;html=1;fillColor=#d5e8d4;strokeColor=#82b366;" vertex="1">
          <mxGeometry as="geometry" x="-65" y="542.5" width="110" height="30" />
        </mxCell>
        <mxCell id="dM0VD-r-u17M0NMK4Lzi-37" value="王国城镇征税权" parent="1" style="rounded=0;whiteSpace=wrap;html=1;fontColor=#333333;" vertex="1">
          <mxGeometry as="geometry" x="130" y="522.5" width="110" height="30" />
        </mxCell>
        <mxCell id="dM0VD-r-u17M0NMK4Lzi-39" parent="1" style="edgeStyle=orthogonalEdgeStyle;rounded=0;orthogonalLoop=1;jettySize=auto;html=1;" edge="1" source="dM0VD-r-u17M0NMK4Lzi-38">
          <mxGeometry as="geometry" relative="1">
            <mxPoint as="targetPoint" x="290" y="577.5" />
          </mxGeometry>
        </mxCell>
        <mxCell id="dM0VD-r-u17M0NMK4Lzi-38" value="削弱天主教会权威" parent="1" style="rounded=0;whiteSpace=wrap;html=1;fontColor=#333333;" vertex="1">
          <mxGeometry as="geometry" x="130" y="562.5" width="110" height="30" />
        </mxCell>
        <mxCell id="dM0VD-r-u17M0NMK4Lzi-40" value="1516《博洛尼亚协定》&amp;nbsp; 确立了王权对教会职位任免权的控制" parent="1" style="text;html=1;strokeColor=#d6b656;fillColor=#fff2cc;align=center;verticalAlign=middle;whiteSpace=wrap;rounded=0;" vertex="1">
          <mxGeometry as="geometry" x="300" y="567.5" width="340" height="20" />
        </mxCell>
        <mxCell id="dM0VD-r-u17M0NMK4Lzi-41" value="瓦卢瓦王朝" parent="1" style="text;html=1;strokeColor=none;fillColor=none;align=center;verticalAlign=middle;whiteSpace=wrap;rounded=0;" vertex="1">
          <mxGeometry as="geometry" x="-90" y="515" width="160" height="20" />
        </mxCell>
        <mxCell id="dM0VD-r-u17M0NMK4Lzi-44" parent="1" style="edgeStyle=orthogonalEdgeStyle;rounded=0;orthogonalLoop=1;jettySize=auto;html=1;" edge="1" source="dM0VD-r-u17M0NMK4Lzi-43">
          <mxGeometry as="geometry" relative="1">
            <mxPoint as="targetPoint" x="100" y="630" />
          </mxGeometry>
        </mxCell>
        <mxCell id="dM0VD-r-u17M0NMK4Lzi-49" parent="1" style="edgeStyle=orthogonalEdgeStyle;rounded=0;orthogonalLoop=1;jettySize=auto;html=1;" edge="1" source="dM0VD-r-u17M0NMK4Lzi-43">
          <mxGeometry as="geometry" relative="1">
            <mxPoint as="targetPoint" x="-10" y="700" />
          </mxGeometry>
        </mxCell>
        <mxCell id="dM0VD-r-u17M0NMK4Lzi-52" parent="1" style="edgeStyle=orthogonalEdgeStyle;rounded=0;orthogonalLoop=1;jettySize=auto;html=1;" edge="1" source="dM0VD-r-u17M0NMK4Lzi-43">
          <mxGeometry as="geometry" relative="1">
            <mxPoint as="targetPoint" x="-140" y="700" />
          </mxGeometry>
        </mxCell>
        <mxCell id="dM0VD-r-u17M0NMK4Lzi-43" value="亨利二世（统治1547-1559）" parent="1" style="rounded=0;whiteSpace=wrap;html=1;fillColor=#d5e8d4;strokeColor=#82b366;" vertex="1">
          <mxGeometry as="geometry" x="-65" y="610" width="110" height="40" />
        </mxCell>
        <mxCell id="dM0VD-r-u17M0NMK4Lzi-46" parent="1" style="edgeStyle=orthogonalEdgeStyle;rounded=0;orthogonalLoop=1;jettySize=auto;html=1;" edge="1" source="dM0VD-r-u17M0NMK4Lzi-45">
          <mxGeometry as="geometry" relative="1">
            <mxPoint as="targetPoint" x="290" y="630" />
          </mxGeometry>
        </mxCell>
        <mxCell id="dM0VD-r-u17M0NMK4Lzi-45" value="宗教压迫政策" parent="1" style="rounded=0;whiteSpace=wrap;html=1;fontColor=#333333;" vertex="1">
          <mxGeometry as="geometry" x="130" y="615" width="110" height="30" />
        </mxCell>
        <mxCell id="dM0VD-r-u17M0NMK4Lzi-47" value="1559《卡托-康布雷奇合约》&amp;nbsp; 结束法兰西和西班牙之间的战争" parent="1" style="text;html=1;strokeColor=#d6b656;fillColor=#fff2cc;align=center;verticalAlign=middle;whiteSpace=wrap;rounded=0;" vertex="1">
          <mxGeometry as="geometry" x="300" y="620" width="340" height="20" />
        </mxCell>
        <mxCell id="dM0VD-r-u17M0NMK4Lzi-48" value="儿子" parent="1" style="text;html=1;strokeColor=none;fillColor=none;align=center;verticalAlign=middle;whiteSpace=wrap;rounded=0;" vertex="1">
          <mxGeometry as="geometry" x="-10" y="580" width="40" height="27.5" />
        </mxCell>
        <mxCell id="dM0VD-r-u17M0NMK4Lzi-50" value="遗孀" parent="1" style="text;html=1;strokeColor=none;fillColor=none;align=center;verticalAlign=middle;whiteSpace=wrap;rounded=0;" vertex="1">
          <mxGeometry as="geometry" x="-140" y="660" width="40" height="27.5" />
        </mxCell>
        <mxCell id="dM0VD-r-u17M0NMK4Lzi-55" parent="1" style="edgeStyle=orthogonalEdgeStyle;rounded=0;orthogonalLoop=1;jettySize=auto;html=1;" edge="1" source="dM0VD-r-u17M0NMK4Lzi-51">
          <mxGeometry as="geometry" relative="1">
            <mxPoint as="targetPoint" x="100" y="720" />
          </mxGeometry>
        </mxCell>
        <mxCell id="dM0VD-r-u17M0NMK4Lzi-63" parent="1" style="edgeStyle=orthogonalEdgeStyle;rounded=0;orthogonalLoop=1;jettySize=auto;html=1;" edge="1" source="dM0VD-r-u17M0NMK4Lzi-51">
          <mxGeometry as="geometry" relative="1">
            <mxPoint as="targetPoint" x="-10" y="790" />
          </mxGeometry>
        </mxCell>
        <mxCell id="dM0VD-r-u17M0NMK4Lzi-64" parent="1" style="edgeStyle=orthogonalEdgeStyle;rounded=0;orthogonalLoop=1;jettySize=auto;html=1;exitX=0;exitY=1;exitDx=0;exitDy=0;" edge="1" source="dM0VD-r-u17M0NMK4Lzi-51">
          <mxGeometry as="geometry" relative="1">
            <mxPoint as="targetPoint" x="-140" y="770" />
            <Array as="points">
              <mxPoint x="-65" y="750" />
              <mxPoint x="-140" y="750" />
            </Array>
          </mxGeometry>
        </mxCell>
        <mxCell id="dM0VD-r-u17M0NMK4Lzi-51" value="弗朗索瓦二世（统治1559-1560）" parent="1" style="rounded=0;whiteSpace=wrap;html=1;fillColor=#d5e8d4;strokeColor=#82b366;" vertex="1">
          <mxGeometry as="geometry" x="-65" y="700" width="110" height="40" />
        </mxCell>
        <mxCell id="dM0VD-r-u17M0NMK4Lzi-68" parent="1" style="edgeStyle=orthogonalEdgeStyle;rounded=0;orthogonalLoop=1;jettySize=auto;html=1;exitX=1;exitY=1;exitDx=0;exitDy=0;" edge="1" source="dM0VD-r-u17M0NMK4Lzi-53" target="dM0VD-r-u17M0NMK4Lzi-67">
          <mxGeometry as="geometry" relative="1">
            <Array as="points">
              <mxPoint x="-90" y="730" />
              <mxPoint x="-80" y="730" />
              <mxPoint x="-80" y="765" />
              <mxPoint x="-10" y="765" />
            </Array>
          </mxGeometry>
        </mxCell>
        <mxCell id="dM0VD-r-u17M0NMK4Lzi-69" parent="1" style="edgeStyle=orthogonalEdgeStyle;rounded=0;orthogonalLoop=1;jettySize=auto;html=1;" edge="1" source="dM0VD-r-u17M0NMK4Lzi-53" target="dM0VD-r-u17M0NMK4Lzi-51">
          <mxGeometry as="geometry" relative="1" />
        </mxCell>
        <mxCell id="dM0VD-r-u17M0NMK4Lzi-70" parent="1" style="edgeStyle=orthogonalEdgeStyle;rounded=0;orthogonalLoop=1;jettySize=auto;html=1;" edge="1" source="dM0VD-r-u17M0NMK4Lzi-53">
          <mxGeometry as="geometry" relative="1">
            <mxPoint as="targetPoint" x="100" y="810" />
            <Array as="points">
              <mxPoint x="60" y="720" />
              <mxPoint x="60" y="810" />
            </Array>
          </mxGeometry>
        </mxCell>
        <mxCell id="dM0VD-r-u17M0NMK4Lzi-87" parent="1" style="edgeStyle=orthogonalEdgeStyle;rounded=0;orthogonalLoop=1;jettySize=auto;html=1;exitX=1;exitY=0.75;exitDx=0;exitDy=0;entryX=0.5;entryY=0;entryDx=0;entryDy=0;" edge="1" source="dM0VD-r-u17M0NMK4Lzi-53" target="dM0VD-r-u17M0NMK4Lzi-85">
          <mxGeometry as="geometry" relative="1">
            <mxPoint as="targetPoint" x="-10" y="909.9999999999998" />
            <Array as="points">
              <mxPoint x="-80" y="730" />
              <mxPoint x="-80" y="880" />
              <mxPoint x="-10" y="880" />
            </Array>
          </mxGeometry>
        </mxCell>
        <mxCell id="dM0VD-r-u17M0NMK4Lzi-53" value="凯瑟琳·德·美第奇（摄政王）" parent="1" style="rounded=0;whiteSpace=wrap;html=1;fontColor=#333333;" vertex="1">
          <mxGeometry as="geometry" x="-200" y="700" width="110" height="40" />
        </mxCell>
        <mxCell id="dM0VD-r-u17M0NMK4Lzi-54" value="儿子" parent="1" style="text;html=1;strokeColor=none;fillColor=none;align=center;verticalAlign=middle;whiteSpace=wrap;rounded=0;" vertex="1">
          <mxGeometry as="geometry" y="660" width="40" height="27.5" />
        </mxCell>
        <mxCell id="dM0VD-r-u17M0NMK4Lzi-59" parent="1" style="edgeStyle=orthogonalEdgeStyle;rounded=0;orthogonalLoop=1;jettySize=auto;html=1;" edge="1" source="dM0VD-r-u17M0NMK4Lzi-57">
          <mxGeometry as="geometry" relative="1">
            <mxPoint as="targetPoint" x="290" y="720" />
          </mxGeometry>
        </mxCell>
        <mxCell id="dM0VD-r-u17M0NMK4Lzi-57" value="三大家族" parent="1" style="rounded=0;whiteSpace=wrap;html=1;fontColor=#333333;" vertex="1">
          <mxGeometry as="geometry" x="130" y="705" width="110" height="30" />
        </mxCell>
        <mxCell id="dM0VD-r-u17M0NMK4Lzi-60" value="吉斯家族（天主教）" parent="1" style="text;html=1;strokeColor=none;fillColor=none;align=center;verticalAlign=middle;whiteSpace=wrap;rounded=0;" vertex="1">
          <mxGeometry as="geometry" x="290" y="690" width="160" height="20" />
        </mxCell>
        <mxCell id="dM0VD-r-u17M0NMK4Lzi-61" value="蒙莫朗家族（天主教）" parent="1" style="text;html=1;strokeColor=none;fillColor=none;align=center;verticalAlign=middle;whiteSpace=wrap;rounded=0;" vertex="1">
          <mxGeometry as="geometry" x="290" y="715" width="160" height="20" />
        </mxCell>
        <mxCell id="dM0VD-r-u17M0NMK4Lzi-62" value="波旁家族（胡格诺派）" parent="1" style="text;html=1;strokeColor=none;fillColor=none;align=center;verticalAlign=middle;whiteSpace=wrap;rounded=0;" vertex="1">
          <mxGeometry as="geometry" x="290" y="740" width="160" height="20" />
        </mxCell>
        <mxCell id="dM0VD-r-u17M0NMK4Lzi-65" value="玛丽·斯图亚特&lt;br&gt;（苏格兰女王）" parent="1" style="rounded=0;whiteSpace=wrap;html=1;fontColor=#333333;" vertex="1">
          <mxGeometry as="geometry" x="-200" y="770" width="110" height="40" />
        </mxCell>
        <mxCell id="dM0VD-r-u17M0NMK4Lzi-66" value="二弟" parent="1" style="text;html=1;strokeColor=none;fillColor=none;align=center;verticalAlign=middle;whiteSpace=wrap;rounded=0;" vertex="1">
          <mxGeometry as="geometry" y="750" width="40" height="27.5" />
        </mxCell>
        <mxCell id="dM0VD-r-u17M0NMK4Lzi-74" parent="1" style="edgeStyle=orthogonalEdgeStyle;rounded=0;orthogonalLoop=1;jettySize=auto;html=1;exitX=0;exitY=1;exitDx=0;exitDy=0;" edge="1" source="dM0VD-r-u17M0NMK4Lzi-67">
          <mxGeometry as="geometry" relative="1">
            <mxPoint as="targetPoint" x="-140" y="850" />
            <Array as="points">
              <mxPoint x="-140" y="830" />
            </Array>
          </mxGeometry>
        </mxCell>
        <mxCell id="dM0VD-r-u17M0NMK4Lzi-84" parent="1" style="edgeStyle=orthogonalEdgeStyle;rounded=0;orthogonalLoop=1;jettySize=auto;html=1;" edge="1" source="dM0VD-r-u17M0NMK4Lzi-67">
          <mxGeometry as="geometry" relative="1">
            <mxPoint as="targetPoint" x="-10" y="929.9999999999998" />
            <Array as="points">
              <mxPoint x="-10" y="930" />
              <mxPoint x="-10" y="930" />
            </Array>
          </mxGeometry>
        </mxCell>
        <mxCell id="dM0VD-r-u17M0NMK4Lzi-67" value="查理九世（统治1560-1574）" parent="1" style="rounded=0;whiteSpace=wrap;html=1;fillColor=#d5e8d4;strokeColor=#82b366;" vertex="1">
          <mxGeometry as="geometry" x="-65" y="790" width="110" height="40" />
        </mxCell>
        <mxCell id="dM0VD-r-u17M0NMK4Lzi-71" value="修复两大教派关系" parent="1" style="rounded=0;whiteSpace=wrap;html=1;fontColor=#333333;" vertex="1">
          <mxGeometry as="geometry" x="130" y="780" width="110" height="30" />
        </mxCell>
        <mxCell id="dM0VD-r-u17M0NMK4Lzi-73" value="1562&amp;nbsp; 第一次大规模宗教战争" parent="1" style="rounded=0;whiteSpace=wrap;html=1;fontColor=#333333;" vertex="1">
          <mxGeometry as="geometry" x="130" y="818.75" width="160" height="30" />
        </mxCell>
        <mxCell id="dM0VD-r-u17M0NMK4Lzi-75" value="玛格丽特" parent="1" style="rounded=0;whiteSpace=wrap;html=1;fontColor=#333333;" vertex="1">
          <mxGeometry as="geometry" x="-200" y="857" width="110" height="33" />
        </mxCell>
        <mxCell id="dM0VD-r-u17M0NMK4Lzi-76" value="妹妹" parent="1" style="text;html=1;strokeColor=none;fillColor=none;align=center;verticalAlign=middle;whiteSpace=wrap;rounded=0;" vertex="1">
          <mxGeometry as="geometry" x="-140" y="825" width="40" height="27.5" />
        </mxCell>
        <mxCell id="dM0VD-r-u17M0NMK4Lzi-90" parent="1" style="edgeStyle=orthogonalEdgeStyle;rounded=0;orthogonalLoop=1;jettySize=auto;html=1;" edge="1" source="dM0VD-r-u17M0NMK4Lzi-77">
          <mxGeometry as="geometry" relative="1">
            <mxPoint as="targetPoint" x="-430" y="873.5" />
          </mxGeometry>
        </mxCell>
        <mxCell id="dM0VD-r-u17M0NMK4Lzi-77" value="纳瓦拉的亨利" parent="1" style="rounded=0;whiteSpace=wrap;html=1;fillColor=#d5e8d4;strokeColor=#82b366;" vertex="1">
          <mxGeometry as="geometry" x="-360" y="853.5" width="110" height="40" />
        </mxCell>
        <mxCell id="dM0VD-r-u17M0NMK4Lzi-78" value="" parent="1" style="endArrow=classic;startArrow=classic;html=1;exitX=1;exitY=0.5;exitDx=0;exitDy=0;entryX=0;entryY=0.5;entryDx=0;entryDy=0;" edge="1" source="dM0VD-r-u17M0NMK4Lzi-77" target="dM0VD-r-u17M0NMK4Lzi-75">
          <mxGeometry as="geometry" relative="1" width="50" height="50">
            <mxPoint as="sourcePoint" x="180" y="660" />
            <mxPoint as="targetPoint" x="230" y="610" />
          </mxGeometry>
        </mxCell>
        <mxCell id="dM0VD-r-u17M0NMK4Lzi-81" value="夫妻" parent="1" style="text;html=1;strokeColor=none;fillColor=none;align=center;verticalAlign=middle;whiteSpace=wrap;rounded=0;" vertex="1">
          <mxGeometry as="geometry" x="-240" y="835" width="40" height="27.5" />
        </mxCell>
        <mxCell id="dM0VD-r-u17M0NMK4Lzi-82" value="天主教 瓦卢瓦家族" parent="1" style="text;html=1;strokeColor=none;fillColor=none;align=center;verticalAlign=middle;whiteSpace=wrap;rounded=0;" vertex="1">
          <mxGeometry as="geometry" x="-225" y="893.5" width="160" height="20" />
        </mxCell>
        <mxCell id="LaSyIgFrHphxOtx25niR-40" parent="1" style="edgeStyle=orthogonalEdgeStyle;rounded=0;orthogonalLoop=1;jettySize=auto;html=1;entryX=0;entryY=0.25;entryDx=0;entryDy=0;" edge="1" source="dM0VD-r-u17M0NMK4Lzi-83" target="LaSyIgFrHphxOtx25niR-41">
          <mxGeometry as="geometry" relative="1">
            <mxPoint as="targetPoint" x="30" y="1490" />
            <Array as="points">
              <mxPoint x="-300" y="1490" />
            </Array>
          </mxGeometry>
        </mxCell>
        <mxCell id="dM0VD-r-u17M0NMK4Lzi-83" value="胡格诺派 波旁家族" parent="1" style="text;html=1;strokeColor=none;fillColor=none;align=center;verticalAlign=middle;whiteSpace=wrap;rounded=0;" vertex="1">
          <mxGeometry as="geometry" x="-380" y="893.5" width="160" height="20" />
        </mxCell>
        <mxCell id="dM0VD-r-u17M0NMK4Lzi-88" parent="1" style="edgeStyle=orthogonalEdgeStyle;rounded=0;orthogonalLoop=1;jettySize=auto;html=1;" edge="1" source="dM0VD-r-u17M0NMK4Lzi-85">
          <mxGeometry as="geometry" relative="1">
            <mxPoint as="targetPoint" x="110" y="950" />
          </mxGeometry>
        </mxCell>
        <mxCell id="LaSyIgFrHphxOtx25niR-39" parent="1" style="edgeStyle=orthogonalEdgeStyle;rounded=0;orthogonalLoop=1;jettySize=auto;html=1;entryX=0.549;entryY=-0.001;entryDx=0;entryDy=0;entryPerimeter=0;" edge="1" source="dM0VD-r-u17M0NMK4Lzi-85" target="LaSyIgFrHphxOtx25niR-41">
          <mxGeometry as="geometry" relative="1">
            <mxPoint as="targetPoint" x="30" y="1470" />
            <Array as="points">
              <mxPoint x="30" y="1470" />
              <mxPoint x="30" y="1470" />
            </Array>
          </mxGeometry>
        </mxCell>
        <mxCell id="dM0VD-r-u17M0NMK4Lzi-85" value="亨利三世（统治1574-1589）" parent="1" style="rounded=0;whiteSpace=wrap;html=1;fillColor=#d5e8d4;strokeColor=#82b366;" vertex="1">
          <mxGeometry as="geometry" x="-65" y="930" width="110" height="40" />
        </mxCell>
        <mxCell id="dM0VD-r-u17M0NMK4Lzi-89" value="1576签署协议放宽对新教徒的宗教活动的限制" parent="1" style="rounded=0;whiteSpace=wrap;html=1;fontColor=#333333;" vertex="1">
          <mxGeometry as="geometry" x="130" y="935" width="160" height="30" />
        </mxCell>
        <mxCell id="dM0VD-r-u17M0NMK4Lzi-91" value="在天主教与新教之间动摇" parent="1" style="text;html=1;strokeColor=none;fillColor=none;align=center;verticalAlign=middle;whiteSpace=wrap;rounded=0;" vertex="1">
          <mxGeometry as="geometry" x="-380" y="820" width="150" height="28.75" />
        </mxCell>
        <mxCell id="LaSyIgFrHphxOtx25niR-12" parent="1" style="edgeStyle=orthogonalEdgeStyle;rounded=0;orthogonalLoop=1;jettySize=auto;html=1;" edge="1" source="dM0VD-r-u17M0NMK4Lzi-92">
          <mxGeometry as="geometry" relative="1">
            <mxPoint as="targetPoint" x="-110" y="1200" />
            <Array as="points">
              <mxPoint x="210" y="1200" />
              <mxPoint x="-110" y="1200" />
            </Array>
          </mxGeometry>
        </mxCell>
        <mxCell id="LaSyIgFrHphxOtx25niR-21" parent="1" style="edgeStyle=orthogonalEdgeStyle;rounded=0;orthogonalLoop=1;jettySize=auto;html=1;" edge="1" source="dM0VD-r-u17M0NMK4Lzi-92">
          <mxGeometry as="geometry" relative="1">
            <mxPoint as="targetPoint" x="-110" y="1410" />
            <Array as="points">
              <mxPoint x="210" y="1410" />
              <mxPoint x="-110" y="1410" />
            </Array>
          </mxGeometry>
        </mxCell>
        <mxCell id="LaSyIgFrHphxOtx25niR-32" parent="1" style="edgeStyle=orthogonalEdgeStyle;rounded=0;orthogonalLoop=1;jettySize=auto;html=1;" edge="1" source="dM0VD-r-u17M0NMK4Lzi-92">
          <mxGeometry as="geometry" relative="1">
            <mxPoint as="targetPoint" x="-100" y="1010" />
          </mxGeometry>
        </mxCell>
        <mxCell id="dM0VD-r-u17M0NMK4Lzi-92" value="1585凯瑟琳与吉斯公爵亨利签订《内穆尔条约》废除所有宗教宽容的赦令，许多城镇加入天主教联盟" parent="1" style="rounded=0;whiteSpace=wrap;html=1;fontColor=#333333;" vertex="1">
          <mxGeometry as="geometry" x="130" y="980" width="160" height="60" />
        </mxCell>
        <mxCell id="LaSyIgFrHphxOtx25niR-1" value="1562&amp;nbsp; 皈依父亲的宗教：天主教" parent="1" style="rounded=0;whiteSpace=wrap;html=1;fontColor=#333333;" vertex="1">
          <mxGeometry as="geometry" x="-640" y="857" width="180" height="30" />
        </mxCell>
        <mxCell id="LaSyIgFrHphxOtx25niR-2" value="父亲死后：新教" parent="1" style="rounded=0;whiteSpace=wrap;html=1;fontColor=#333333;" vertex="1">
          <mxGeometry as="geometry" x="-640" y="893.5" width="180" height="30" />
        </mxCell>
        <mxCell id="LaSyIgFrHphxOtx25niR-3" value="1572 圣巴多罗买日大屠杀：天主教" parent="1" style="rounded=0;whiteSpace=wrap;html=1;fontColor=#333333;" vertex="1">
          <mxGeometry as="geometry" x="-640" y="930" width="200" height="30" />
        </mxCell>
        <mxCell id="LaSyIgFrHphxOtx25niR-4" value="1953&amp;nbsp; 放弃新教：天主教" parent="1" style="rounded=0;whiteSpace=wrap;html=1;fontColor=#333333;" vertex="1">
          <mxGeometry as="geometry" x="-640" y="1010" width="150" height="30" />
        </mxCell>
        <mxCell id="LaSyIgFrHphxOtx25niR-7" value="" parent="1" style="endArrow=classic;startArrow=classic;html=1;exitX=0.067;exitY=0.98;exitDx=0;exitDy=0;exitPerimeter=0;" edge="1" source="dM0VD-r-u17M0NMK4Lzi-85">
          <mxGeometry as="geometry" relative="1" width="50" height="50">
            <mxPoint as="sourcePoint" x="-300" y="940" />
            <mxPoint as="targetPoint" x="-250" y="890" />
            <Array as="points">
              <mxPoint x="-190" y="1000" />
            </Array>
          </mxGeometry>
        </mxCell>
        <mxCell id="LaSyIgFrHphxOtx25niR-8" value="吉斯公爵亨利" parent="1" style="rounded=0;whiteSpace=wrap;html=1;fillColor=#d5e8d4;strokeColor=#82b366;" vertex="1">
          <mxGeometry as="geometry" x="-230" y="1000" width="110" height="40" />
        </mxCell>
        <mxCell id="LaSyIgFrHphxOtx25niR-9" value="弟弟" parent="1" style="text;html=1;strokeColor=none;fillColor=none;align=center;verticalAlign=middle;whiteSpace=wrap;rounded=0;" vertex="1">
          <mxGeometry as="geometry" y="866" width="40" height="27.5" />
        </mxCell>
        <mxCell id="LaSyIgFrHphxOtx25niR-20" parent="1" style="edgeStyle=orthogonalEdgeStyle;rounded=0;orthogonalLoop=1;jettySize=auto;html=1;" edge="1" source="dM0VD-r-u17M0NMK4Lzi-86">
          <mxGeometry as="geometry" relative="1">
            <mxPoint as="targetPoint" x="-240" y="1120" />
          </mxGeometry>
        </mxCell>
        <mxCell id="LaSyIgFrHphxOtx25niR-22" parent="1" style="edgeStyle=orthogonalEdgeStyle;rounded=0;orthogonalLoop=1;jettySize=auto;html=1;" edge="1" source="dM0VD-r-u17M0NMK4Lzi-86">
          <mxGeometry as="geometry" relative="1">
            <mxPoint as="targetPoint" x="-240" y="1330" />
          </mxGeometry>
        </mxCell>
        <mxCell id="dM0VD-r-u17M0NMK4Lzi-86" value="&lt;b&gt;1585三亨利之战&lt;/b&gt;" parent="1" style="text;html=1;strokeColor=#b85450;fillColor=#f8cecc;align=center;verticalAlign=middle;whiteSpace=wrap;rounded=0;" vertex="1">
          <mxGeometry as="geometry" x="-194" y="942.5" width="64" height="27.5" />
        </mxCell>
        <mxCell id="LaSyIgFrHphxOtx25niR-14" value="吉斯公爵亨利" parent="1" style="rounded=0;whiteSpace=wrap;html=1;fillColor=#d5e8d4;strokeColor=#82b366;" vertex="1">
          <mxGeometry as="geometry" x="-360" y="1120" width="110" height="40" />
        </mxCell>
        <mxCell id="LaSyIgFrHphxOtx25niR-15" value="亨利三世（统治1574-1589）" parent="1" style="rounded=0;whiteSpace=wrap;html=1;fillColor=#d5e8d4;strokeColor=#82b366;" vertex="1">
          <mxGeometry as="geometry" x="-225" y="1120" width="110" height="40" />
        </mxCell>
        <mxCell id="LaSyIgFrHphxOtx25niR-16" value="" parent="1" style="endArrow=classic;startArrow=classic;html=1;entryX=0.25;entryY=1;entryDx=0;entryDy=0;" edge="1" target="LaSyIgFrHphxOtx25niR-15">
          <mxGeometry as="geometry" relative="1" width="50" height="50">
            <mxPoint as="sourcePoint" x="-275" y="1160" />
            <mxPoint as="targetPoint" x="-225" y="1110" />
            <Array as="points">
              <mxPoint x="-240" y="1210" />
            </Array>
          </mxGeometry>
        </mxCell>
        <mxCell id="LaSyIgFrHphxOtx25niR-17" value="纳瓦拉的亨利" parent="1" style="rounded=0;whiteSpace=wrap;html=1;fillColor=#d5e8d4;strokeColor=#82b366;" vertex="1">
          <mxGeometry as="geometry" x="-295" y="1210" width="110" height="40" />
        </mxCell>
        <mxCell id="LaSyIgFrHphxOtx25niR-19" value="&lt;div align=&quot;left&quot;&gt;三亨利之战转变&lt;/div&gt;&lt;div align=&quot;left&quot;&gt;——纳瓦拉的亨利孤军奋战&lt;/div&gt;" parent="1" style="text;html=1;strokeColor=#666666;fillColor=#f5f5f5;align=left;verticalAlign=middle;whiteSpace=wrap;rounded=0;fontColor=#333333;" vertex="1">
          <mxGeometry as="geometry" x="-194" y="1060" width="164" height="40" />
        </mxCell>
        <mxCell id="LaSyIgFrHphxOtx25niR-23" value="暗杀吉斯公爵迫使天主教联盟对亨利三世发动全面反叛。&lt;br&gt;亨利三世被迫与纳瓦拉亨利结成同盟" parent="1" style="text;html=1;strokeColor=#666666;fillColor=#f5f5f5;align=left;verticalAlign=middle;whiteSpace=wrap;rounded=0;fontColor=#333333;" vertex="1">
          <mxGeometry as="geometry" x="-194" y="1260" width="194" height="60" />
        </mxCell>
        <mxCell id="LaSyIgFrHphxOtx25niR-28" value="纳瓦拉的亨利" parent="1" style="rounded=0;whiteSpace=wrap;html=1;fillColor=#d5e8d4;strokeColor=#82b366;" vertex="1">
          <mxGeometry as="geometry" x="-360" y="1340" width="110" height="40" />
        </mxCell>
        <mxCell id="LaSyIgFrHphxOtx25niR-29" value="亨利三世（统治1574-1589）" parent="1" style="rounded=0;whiteSpace=wrap;html=1;fillColor=#d5e8d4;strokeColor=#82b366;" vertex="1">
          <mxGeometry as="geometry" x="-225" y="1340" width="110" height="40" />
        </mxCell>
        <mxCell id="LaSyIgFrHphxOtx25niR-30" value="" parent="1" style="endArrow=classic;startArrow=classic;html=1;entryX=0.25;entryY=1;entryDx=0;entryDy=0;" edge="1" target="LaSyIgFrHphxOtx25niR-29">
          <mxGeometry as="geometry" relative="1" width="50" height="50">
            <mxPoint as="sourcePoint" x="-275" y="1380" />
            <mxPoint as="targetPoint" x="-225" y="1330" />
            <Array as="points">
              <mxPoint x="-240" y="1430" />
            </Array>
          </mxGeometry>
        </mxCell>
        <mxCell id="LaSyIgFrHphxOtx25niR-31" value="天主教联盟" parent="1" style="rounded=0;whiteSpace=wrap;html=1;fillColor=#d5e8d4;strokeColor=#82b366;" vertex="1">
          <mxGeometry as="geometry" x="-295" y="1430" width="110" height="40" />
        </mxCell>
        <mxCell id="LaSyIgFrHphxOtx25niR-38" value="离开巴黎监视之后正式放弃天主教：新教" parent="1" style="rounded=0;whiteSpace=wrap;html=1;fontColor=#333333;" vertex="1">
          <mxGeometry as="geometry" x="-640" y="970" width="230" height="30" />
        </mxCell>
        <mxCell id="LaSyIgFrHphxOtx25niR-49" parent="1" style="edgeStyle=orthogonalEdgeStyle;rounded=0;orthogonalLoop=1;jettySize=auto;html=1;exitX=0;exitY=1;exitDx=0;exitDy=0;" edge="1" source="LaSyIgFrHphxOtx25niR-41">
          <mxGeometry as="geometry" relative="1">
            <mxPoint as="targetPoint" x="-180" y="1540" />
            <Array as="points">
              <mxPoint x="-180" y="1520" />
            </Array>
          </mxGeometry>
        </mxCell>
        <mxCell id="iiDo_MAlYURggGh3Gv1T-1" parent="1" style="edgeStyle=orthogonalEdgeStyle;rounded=0;orthogonalLoop=1;jettySize=auto;html=1;" edge="1" source="LaSyIgFrHphxOtx25niR-41">
          <mxGeometry as="geometry" relative="1">
            <mxPoint as="targetPoint" x="25" y="1770" />
          </mxGeometry>
        </mxCell>
        <mxCell id="LaSyIgFrHphxOtx25niR-41" value="亨利四世" parent="1" style="rounded=0;whiteSpace=wrap;html=1;fillColor=#d5e8d4;strokeColor=#82b366;" vertex="1">
          <mxGeometry as="geometry" x="-30" y="1480" width="110" height="40" />
        </mxCell>
        <mxCell id="LaSyIgFrHphxOtx25niR-46" value="1595&amp;nbsp; 对西班牙宣战" parent="1" style="rounded=0;whiteSpace=wrap;html=1;fontColor=#333333;" vertex="1">
          <mxGeometry as="geometry" x="130" y="1470" width="160" height="30" />
        </mxCell>
        <mxCell id="LaSyIgFrHphxOtx25niR-47" value="1598&amp;nbsp; 与腓力二世签订《韦尔万合约》结束战争" parent="1" style="rounded=0;whiteSpace=wrap;html=1;fontColor=#333333;" vertex="1">
          <mxGeometry as="geometry" x="130" y="1510" width="260" height="30" />
        </mxCell>
        <mxCell id="LaSyIgFrHphxOtx25niR-48" value="&lt;div align=&quot;left&quot;&gt;1598&amp;nbsp; 《南特赦令》使天主教正式成为法兰西国教&lt;br&gt;同时使新教徒成为一种单独的社会等级，有特定的特权和权利&lt;br&gt;使胡格诺派得到了比较安全的地位&lt;/div&gt;" parent="1" style="rounded=0;whiteSpace=wrap;html=1;fontColor=#333333;align=left;" vertex="1">
          <mxGeometry as="geometry" x="130" y="1550" width="330" height="70" />
        </mxCell>
        <mxCell id="LaSyIgFrHphxOtx25niR-50" value="玛丽·德·美第奇（凯瑟琳远房表亲）" parent="1" style="rounded=0;whiteSpace=wrap;html=1;fontColor=#333333;" vertex="1">
          <mxGeometry as="geometry" x="-235" y="1540" width="110" height="33" />
        </mxCell>
        <mxCell id="LaSyIgFrHphxOtx25niR-51" value="夫妻" parent="1" style="text;html=1;strokeColor=none;fillColor=none;align=center;verticalAlign=middle;whiteSpace=wrap;rounded=0;" vertex="1">
          <mxGeometry as="geometry" x="-100" y="1522.5" width="40" height="27.5" />
        </mxCell>
        <mxCell id="iiDo_MAlYURggGh3Gv1T-2" value="路易十三" parent="1" style="rounded=0;whiteSpace=wrap;html=1;fillColor=#d5e8d4;strokeColor=#82b366;" vertex="1">
          <mxGeometry as="geometry" x="-30" y="1770" width="110" height="40" />
        </mxCell>
        <mxCell id="iiDo_MAlYURggGh3Gv1T-3" value="1563 凯瑟琳发布安布瓦斯赦令，给予新教徒信仰自由和在指定地区举行宗教仪式的自由" parent="1" style="rounded=0;whiteSpace=wrap;html=1;fontColor=#333333;align=left;" vertex="1">
          <mxGeometry as="geometry" x="130" y="854.75" width="340" height="50" />
        </mxCell>
      </root>
    </mxGraphModel>
  </diagram>
</mxfile>
